<?xml version="1.0" encoding="utf-8"?><!-- Uploaded to: SVG Repo, www.svgrepo.com, Generator: SVG Repo Mixer Tools -->
<svg width="800px" height="800px" viewBox="0 0 24 24" xmlns="http://www.w3.org/2000/svg" id="sound-mute-alt" class="icon glyph"><path d="M11.38,4.08a1,1,0,0,0-1.09.21L6.59,8H4a2,2,0,0,0-2,2v4a2,2,0,0,0,2,2H6.59l3.7,3.71A1,1,0,0,0,11,20a.84.84,0,0,0,.38-.08A1,1,0,0,0,12,19V5A1,1,0,0,0,11.38,4.08Z" style="fill:#231f20"></path><path d="M16,15.5a1,1,0,0,1-.71-.29,1,1,0,0,1,0-1.42l5-5a1,1,0,0,1,1.42,1.42l-5,5A1,1,0,0,1,16,15.5Z" style="fill:#231f20"></path><path d="M21,15.5a1,1,0,0,1-.71-.29l-5-5a1,1,0,0,1,1.42-1.42l5,5a1,1,0,0,1,0,1.42A1,1,0,0,1,21,15.5Z" style="fill:#231f20"></path></svg>