<?xml version="1.0" encoding="UTF-8" standalone="no"?>
<!-- Created with Inkscape (http://www.inkscape.org/) -->

<svg
   width="48"
   height="64"
   viewBox="0 -0.5 5 10"
   version="1.1"
   id="svg1"
   xml:space="preserve"
   sodipodi:docname="samael_bw.svg"
   inkscape:version="1.4.2 (f4327f4, 2025-05-13)"
   xmlns:inkscape="http://www.inkscape.org/namespaces/inkscape"
   xmlns:sodipodi="http://sodipodi.sourceforge.net/DTD/sodipodi-0.dtd"
   xmlns:xlink="http://www.w3.org/1999/xlink"
   xmlns="http://www.w3.org/2000/svg"
   xmlns:svg="http://www.w3.org/2000/svg"><sodipodi:namedview
     id="namedview1"
     pagecolor="#505050"
     bordercolor="#eeeeee"
     borderopacity="1"
     inkscape:showpageshadow="0"
     inkscape:pageopacity="0"
     inkscape:pagecheckerboard="0"
     inkscape:deskcolor="#505050"
     inkscape:document-units="mm"
     inkscape:zoom="22.627417"
     inkscape:cx="12.153398"
     inkscape:cy="17.213631"
     inkscape:window-width="1920"
     inkscape:window-height="1057"
     inkscape:window-x="1912"
     inkscape:window-y="-8"
     inkscape:window-maximized="1"
     inkscape:current-layer="layer1" /><defs
     id="defs1"><inkscape:path-effect
       effect="spiro"
       id="path-effect26"
       is_visible="true"
       lpeversion="1" /><linearGradient
       id="linearGradient12"
       inkscape:collect="always"><stop
         style="stop-color:#3333a2;stop-opacity:1;"
         offset="0"
         id="stop12" /><stop
         style="stop-color:#581f62;stop-opacity:1;"
         offset="0.27708977"
         id="stop14" /><stop
         style="stop-color:#77771a;stop-opacity:1;"
         offset="0.81269348"
         id="stop13" /></linearGradient><linearGradient
       inkscape:collect="always"
       xlink:href="#linearGradient12"
       id="linearGradient13"
       x1="6.9202957"
       y1="1.8428686"
       x2="8.1777029"
       y2="3.0571322"
       gradientUnits="userSpaceOnUse"
       spreadMethod="pad" /></defs><g
     inkscape:label="Calque 1"
     inkscape:groupmode="layer"
     id="layer1"
     transform="translate(-3.5)"><g
       id="g12"
       style="stroke:none;stroke-opacity:1;paint-order:markers stroke fill;stroke-width:0.05;stroke-dasharray:none;stroke-linecap:round;fill:#000000"><g
         id="g23"
         style="display:none;fill:#000000;stroke:none;stroke-opacity:1"><path
           style="fill:#000000;fill-opacity:1;stroke:none;stroke-width:0.025;stroke-linecap:round;stroke-linejoin:round;stroke-dasharray:none;stroke-dashoffset:0;stroke-opacity:1;paint-order:markers stroke fill"
           d="M 4.4748469,5.7905548 C 8.6492627,3.7910447 7.9476802,1.96693 7.9476802,1.96693 L 7.608582,1.85 c 0,0 0.7717407,1.7890351 -3.2506655,3.6599218 -4.02240649,1.8708867 0.1169304,0.280633 0.1169304,0.280633 z"
           id="path21-1" /><path
           style="fill:#000000;fill-opacity:1;stroke:none;stroke-width:0.025;stroke-linecap:round;stroke-linejoin:round;stroke-dasharray:none;stroke-dashoffset:0;stroke-opacity:1;paint-order:markers stroke fill"
           d="M 5.0348469,6.3405548 C 9.2092627,4.3410447 8.5076802,2.51693 8.5076802,2.51693 L 8.168582,2.4 c 0,0 0.7717407,1.7890351 -3.2506655,3.6599218 -4.0224065,1.8708867 0.1169304,0.280633 0.1169304,0.280633 z"
           id="path21-1-1" /><path
           style="fill:#000000;fill-opacity:1;stroke:none;stroke-width:0.025;stroke-linecap:round;stroke-linejoin:round;stroke-dasharray:none;stroke-dashoffset:0;stroke-opacity:1;paint-order:markers stroke fill"
           d="M 3.8748469,5.3405548 C 8.0492627,3.3410447 7.3476802,1.51693 7.3476802,1.51693 L 7.008582,1.4 c 0,0 0.7717407,1.7890351 -3.2506655,3.6599218 -4.02240648,1.8708867 0.1169304,0.280633 0.1169304,0.280633 z"
           id="path21-1-1-2" /><path
           style="fill:#000000;fill-opacity:1;stroke:none;stroke-width:0.025;stroke-linecap:round;stroke-linejoin:round;stroke-dasharray:none;stroke-dashoffset:0;stroke-opacity:1;paint-order:markers stroke fill"
           d="M 8.5081251,2.5211005 C 8.3138217,1.7686917 7.0139974,1.4014648 7.0139974,1.4014648 6.6835194,1.395917 6.539462,2.0196648 6.7190209,2.1650289 6.8887303,2.3024194 7.2214237,2.5185855 7.3900088,2.7041411 7.5585939,2.8896968 8.03031,3.546413 8.0938322,3.6850512 8.1503369,3.8083735 8.2666345,2.5796875 8.2666345,2.5796875 Z"
           id="path23"
           sodipodi:nodetypes="ccszscc" /></g><g
         inkscape:groupmode="layer"
         id="layer2"
         inkscape:label="Layer 1"
         style="display:none;fill:#000000;stroke:none;stroke-opacity:1"><path
           style="fill:#000000;fill-opacity:1;stroke:none;stroke-width:0.025;stroke-linecap:round;stroke-linejoin:round;stroke-dasharray:none;stroke-dashoffset:0;stroke-opacity:1;paint-order:markers stroke fill"
           d="M 6.1084802,1.9780085 C 6.0999502,1.9164145 6.0205162,1.8626877 6.0411592,1.8040315 6.0553632,1.7636725 6.1299962,1.7762675 6.152243,1.7397195 6.19485,1.6697235 6.091267,1.5320314 6.163937,1.4941656 c 0.093982,-0.04897 0.26894,0.1695491 0.26894,0.1695491 0,0 0.7223517,-0.5706776 1.0081451,-0.75027468 0.7859599,-0.49390963 1.0694475,-0.43987184 1.0694475,-0.43987184 0,0 -0.065249,-0.0734005 -0.043905,-0.0734005 0.021345,0 0.044717,3.5861e-4 0.069682,0.0218761 0.021472,0.0185077 0.07265,-0.008129 0.085155,0.003577 0.010807,0.0101159 -0.025949,0.0401676 -0.025949,0.0568945 0,0.0178054 0.012183,0.03663 0.026346,0.0961978 0.076944,0.32362007 0.2032288,0.85599402 0.1663808,1.59911592 -0.038651,0.7794805 -0.4297193,1.4528604 -0.4297193,1.4528604 0,0 0.095493,-0.053411 0.1202945,-0.035666 0.026055,0.018641 -0.1113828,0.2372631 -0.1176398,0.2619685 -0.00305,0.012025 0.1080507,0.050885 0.097,0.060765 -0.012646,0.011306 -0.1334991,0.032122 -0.2107379,0.06957 -0.071199,0.03452 -0.3447878,0.2070676 -0.4261546,0.2562656 -0.089637,0.054199 -0.3442034,0.049552 -0.3442034,0.049552 0,0 -0.02782,-0.8548943 -0.2761701,-1.2588 C 6.9252859,2.5861808 6.0924247,2.1485753 6.0924247,2.1485753 c 0,0 0.023893,-0.1140003 0.016056,-0.1705668 z"
           id="path24"
           sodipodi:nodetypes="sssscsczssssscssssscscs" /></g><g
         id="g1"
         style="fill:#000000;fill-opacity:1;stroke:none;stroke-opacity:1;paint-order:markers stroke fill;stroke-width:0.05;stroke-dasharray:none;stroke-linecap:round"><path
           sodipodi:type="star"
           style="fill:#000000;stroke-width:0.08107912;fill-opacity:1;stroke:none;stroke-opacity:1;paint-order:markers stroke fill;stroke-dasharray:none;stroke-linecap:round"
           id="path3"
           inkscape:flatsided="true"
           sodipodi:sides="3"
           sodipodi:cx="4.264811"
           sodipodi:cy="3.1501956"
           sodipodi:r1="0.19428384"
           sodipodi:r2="0.090668216"
           sodipodi:arg1="-2.4207952"
           sodipodi:arg2="-1.3735976"
           inkscape:rounded="0"
           inkscape:randomized="0"
           d="m 4.1188495,3.0219714 0.3299877,0.06593 -0.2220908,0.2528128 z"
           inkscape:transform-center-x="-0.014222688"
           inkscape:transform-center-y="0.014724515"
           transform="matrix(0.60608322,0,0,0.62746534,1.8036344,1.2038177)" /><path
           sodipodi:type="star"
           style="fill:#000000;stroke-width:0.08107912;fill-opacity:1;stroke:none;stroke-opacity:1;paint-order:markers stroke fill;stroke-dasharray:none;stroke-linecap:round"
           id="path3-2"
           inkscape:flatsided="true"
           sodipodi:sides="3"
           sodipodi:cx="4.264811"
           sodipodi:cy="3.1501956"
           sodipodi:r1="0.19428384"
           sodipodi:r2="0.090668216"
           sodipodi:arg1="-2.4207952"
           sodipodi:arg2="-1.3735976"
           inkscape:rounded="0"
           inkscape:randomized="0"
           d="m 4.1188495,3.0219714 0.3299877,0.06593 -0.2220908,0.2528128 z"
           inkscape:transform-center-x="-0.014222688"
           inkscape:transform-center-y="-0.014724475"
           transform="matrix(0.60608322,0,0,-0.62746534,1.8036344,6.9961823)" /><path
           sodipodi:type="star"
           style="fill:#000000;stroke-width:0.08107912;fill-opacity:1;stroke:none;stroke-opacity:1;paint-order:markers stroke fill;stroke-dasharray:none;stroke-linecap:round"
           id="path3-2-2"
           inkscape:flatsided="true"
           sodipodi:sides="3"
           sodipodi:cx="4.264811"
           sodipodi:cy="3.1501956"
           sodipodi:r1="0.19428384"
           sodipodi:r2="0.090668216"
           sodipodi:arg1="-2.4207952"
           sodipodi:arg2="-1.3735976"
           inkscape:rounded="0"
           inkscape:randomized="0"
           d="m 4.1188495,3.0219714 0.3299877,0.06593 -0.2220908,0.2528128 z"
           inkscape:transform-center-x="0.014222695"
           inkscape:transform-center-y="-0.014724475"
           transform="matrix(-0.60608322,0,0,-0.62746534,9.1963656,6.9961823)" /><path
           sodipodi:type="star"
           style="fill:#000000;stroke-width:0.08107912;fill-opacity:1;stroke:none;stroke-opacity:1;paint-order:markers stroke fill;stroke-dasharray:none;stroke-linecap:round"
           id="path3-1"
           inkscape:flatsided="true"
           sodipodi:sides="3"
           sodipodi:cx="4.264811"
           sodipodi:cy="3.1501956"
           sodipodi:r1="0.19428384"
           sodipodi:r2="0.090668216"
           sodipodi:arg1="-2.4207952"
           sodipodi:arg2="-1.3735976"
           inkscape:rounded="0"
           inkscape:randomized="0"
           d="m 4.1188495,3.0219714 0.3299877,0.06593 -0.2220908,0.2528128 z"
           inkscape:transform-center-x="0.014222695"
           inkscape:transform-center-y="0.014724515"
           transform="matrix(-0.60608322,0,0,0.62746534,9.1963656,1.2038177)" /></g><g
         id="g2"
         style="fill:#000000;fill-opacity:1;stroke:none;stroke-opacity:1;paint-order:markers stroke fill;stroke-width:0.025;stroke-dasharray:none;stroke-linecap:round"><path
           d="m 4.2715291,5.5500488 c 0.00199,0.023396 0.00414,0.049383 0.0062,0.078031 a 2.000122,2 0 0 0 0.8314738,0.3787883 c -0.0074,-0.021213 -0.014667,-0.042255 -0.022221,-0.063562 A 1.9422408,1.9421223 0 0 1 4.2715291,5.5500488 Z"
           style="fill:#000000;stroke-width:0.025;fill-opacity:1;stroke:none;stroke-opacity:1;paint-order:markers stroke fill;stroke-dasharray:none;stroke-linecap:round"
           id="path12" /><path
           d="m 3.5,4.0642212 c 0.015958,-0.00754 0.035462,-0.016558 0.057878,-0.026355 A 1.9422408,1.9421223 0 0 1 5.0198039,2.1630453 c 0.00496,-0.020975 0.010086,-0.041841 0.014986,-0.063045 A 2.000122,2 0 0 0 3.5,4.0451009 a 2.000122,2 0 0 0 0,0.01912 z"
           style="fill:#000000;stroke-width:0.025;fill-opacity:1;stroke:none;stroke-opacity:1;paint-order:markers stroke fill;stroke-dasharray:none;stroke-linecap:round"
           id="path9" /><path
           d="m 3.5020671,4.1320475 a 2.000122,2 0 0 0 0.7224365,1.4536581 c 0.00199,-0.026269 0.00369,-0.049801 0.00568,-0.07028 A 1.9422408,1.9421223 0 0 1 3.5609782,4.1589193 c -0.022964,-0.010028 -0.04251,-0.019169 -0.058911,-0.026872 z"
           style="fill:#000000;stroke-width:0.025;fill-opacity:1;stroke:none;stroke-opacity:1;paint-order:markers stroke fill;stroke-dasharray:none;stroke-linecap:round"
           id="path11" /><path
           d="m 7.4982056,4.1324341 c -0.016405,0.00774 -0.03646,0.016822 -0.059428,0.026872 A 1.9422408,1.9421223 0 0 1 5.9132894,5.9431763 c -0.00755,0.021307 -0.015341,0.042349 -0.022738,0.063562 A 2.000122,2 0 0 0 7.4982056,4.1324341 Z"
           style="fill:#000000;stroke-width:0.025;fill-opacity:1;stroke:none;stroke-opacity:1;paint-order:markers stroke fill;stroke-dasharray:none;stroke-linecap:round"
           id="path7" /><path
           d="m 5.9654826,2.1 c 0.0049,0.021204 0.00951,0.042071 0.014469,0.063045 a 1.9422408,1.9421223 0 0 1 1.4619263,1.8743042 c 0.022418,0.00982 0.041918,0.01878 0.057878,0.026355 a 2.000122,2 0 0 0 0,-0.018604 A 2.000122,2 0 0 0 5.9654826,2.1 Z"
           style="fill:#000000;stroke-width:0.025;fill-opacity:1;stroke:none;stroke-opacity:1;paint-order:markers stroke fill;stroke-dasharray:none;stroke-linecap:round"
           id="path6" /></g><g
         id="g5"
         style="fill:#000000;fill-opacity:1;stroke:none;stroke-opacity:1;stroke-width:0.05;stroke-dasharray:none;stroke-linejoin:round;paint-order:markers stroke fill;stroke-linecap:round;stroke-dashoffset:0"><text
           xml:space="preserve"
           style="font-style:normal;font-variant:normal;font-weight:normal;font-stretch:normal;font-size:0.651707px;font-family:Sans;-inkscape-font-specification:'Sans, Normal';font-variant-ligatures:normal;font-variant-caps:normal;font-variant-numeric:normal;font-variant-east-asian:normal;text-align:start;writing-mode:lr-tb;direction:ltr;text-anchor:start;fill:#000000;stroke-width:0.05;fill-opacity:1;stroke:none;stroke-opacity:1;stroke-dasharray:none;stroke-linejoin:round;paint-order:markers stroke fill;stroke-linecap:round;stroke-dashoffset:0"
           x="6.5104413"
           y="2.193465"
           id="text13"
           transform="scale(1.0230655,0.97745453)"><tspan
             sodipodi:role="line"
             id="tspan13"
             x="6.5104413"
             y="2.193465"
             style="stroke-width:0.05;fill:#000000;fill-opacity:1;stroke:none;stroke-opacity:1;stroke-dasharray:none;stroke-linejoin:round;paint-order:markers stroke fill;stroke-linecap:round;stroke-dashoffset:0">사</tspan></text><text
           xml:space="preserve"
           style="font-size:0.676973px;font-family:Sans;-inkscape-font-specification:'Sans, Normal';text-align:start;writing-mode:lr-tb;direction:ltr;text-anchor:start;fill:#000000;stroke-width:0.05;fill-opacity:1;stroke:none;stroke-opacity:1;stroke-dasharray:none;stroke-linejoin:round;paint-order:markers stroke fill;stroke-linecap:round;stroke-dashoffset:0"
           x="6.8042517"
           y="2.7875497"
           id="text2"
           transform="scale(1.0627282,0.94097437)"><tspan
             sodipodi:role="line"
             id="tspan2"
             style="stroke-width:0.05;fill:#000000;fill-opacity:1;stroke:none;stroke-opacity:1;stroke-dasharray:none;stroke-linejoin:round;paint-order:markers stroke fill;stroke-linecap:round;stroke-dashoffset:0"
             x="6.8042517"
             y="2.7875497">마</tspan></text><text
           xml:space="preserve"
           style="font-size:0.702502px;font-family:Sans;-inkscape-font-specification:'Sans, Normal';text-align:start;writing-mode:lr-tb;direction:ltr;text-anchor:start;fill:#000000;stroke-width:0.05;fill-opacity:1;stroke:none;stroke-opacity:1;stroke-dasharray:none;stroke-linejoin:round;paint-order:markers stroke fill;stroke-linecap:round;stroke-dashoffset:0"
           x="7.1730633"
           y="3.5080528"
           id="text3"
           transform="scale(1.077079,0.92843701)"><tspan
             sodipodi:role="line"
             id="tspan3"
             style="stroke-width:0.05;fill:#000000;fill-opacity:1;stroke:none;stroke-opacity:1;stroke-dasharray:none;stroke-linejoin:round;paint-order:markers stroke fill;stroke-linecap:round;stroke-dashoffset:0"
             x="7.1730633"
             y="3.5080528">엘</tspan></text></g><g
         id="g4"
         style="stroke:none;stroke-opacity:1;paint-order:markers stroke fill;stroke-width:0.05;stroke-dasharray:none;stroke-linecap:round;fill:#000000;fill-opacity:1"><path
           style="fill:#000000;stroke-width:0.05;fill-opacity:1;stroke:none;stroke-opacity:1;paint-order:markers stroke fill;stroke-dasharray:none;stroke-linecap:round"
           d="M 4.25,5.5 C 4.2071575,5.5 4.225566,6.5797131 4,7 3.774434,7.4202869 3.525,7.5639771 3.525,7.5639771 3.525,7.5639771 3.7128483,7.7128483 3.9,7.9 4.1104039,8.1372764 4.2313676,8.4 4.25,8.4 4.268632,8.4 4.4181895,8.098551 4.6,7.9 4.8106433,7.6699614 5,7.5639771 5,7.5639771 5,7.5639771 4.7238604,7.4206796 4.5,7 4.2761395,6.5793205 4.2928425,5.5 4.25,5.5 Z"
           id="path1"
           sodipodi:nodetypes="zzcccsczz" /><path
           style="fill:#000000;fill-opacity:1;stroke:none;stroke-width:0.05;stroke-linecap:round;stroke-dasharray:none;stroke-opacity:1;paint-order:markers stroke fill"
           d="M 8,4.3 C 7.907113,4.3 8.0809383,5.8833786 7.75,6.5 7.3898988,7.1709593 7,7.2468454 7,7.3130778 7,7.3793102 7.3902813,7.4635514 7.7,8 8.131006,8.7465243 7.8772996,9.25 8,9.25 8.1227004,9.25 7.8682925,8.7477394 8.3,8 8.5525608,7.5625518 9,7.3755829 9,7.3130778 9,7.2505727 8.632742,7.1712612 8.2755372,6.5 7.9116508,5.8161828 8.0899113,4.3 8,4.3 Z"
           id="path1-9"
           sodipodi:nodetypes="zszszszsz" /><path
           style="fill:#000000;stroke-width:0.05;fill-opacity:1;stroke:none;stroke-opacity:1;paint-order:markers stroke fill;stroke-dasharray:none;stroke-linecap:round"
           d="M 5.5,0 C 5.3947597,0 5.1018341,2.5423732 4.7,3.2 4.2981659,3.8576268 3.5,4.049797 3.5,4.1 3.5,4.150203 4.2981659,4.3423732 4.7,5 5.1018341,5.6576268 5.4046325,7 5.5,7 5.5953675,7 5.8981659,5.6576268 6.3,5 6.7018341,4.3423732 7.5,4.1512795 7.5,4.1 7.5,4.0487205 6.7018341,3.8576268 6.3,3.2 5.8981659,2.5423732 5.6052403,0 5.5,0 Z"
           id="path2"
           sodipodi:nodetypes="zzzzzzzzz" /></g></g></g></svg>
